<svg width="55" height="17" viewBox="0 0 55 17" fill="none" xmlns="http://www.w3.org/2000/svg">
<g filter="url(#filter0_d_1_2)">
<mask id="path-1-outside-1_1_2" maskUnits="userSpaceOnUse" x="4" y="-0.0488281" width="47" height="9" fill="black">
<rect fill="white" x="4" y="-0.0488281" width="47" height="9"/>
<path d="M4.5 7.95117V0.451172H6V1.95117H7.5V3.45117H9V4.95117H10.5V0.451172H12V7.95117H10.5V6.45117H9V4.95117H7.5V3.45117H6V7.95117H4.5ZM13.56 7.95117V0.451172H18.06V1.95117H19.56V6.45117H18.06V7.95117H13.56ZM15.06 3.45117H18V1.95117H15.06V3.45117ZM15.06 6.45117H18V4.95117H15.06V6.45117ZM21.12 7.95117V0.451172H25.62V1.95117H22.62V3.45117H25.62V4.95117H22.62V6.45117H25.62V7.95117H21.12ZM27.18 7.95117V0.451172H28.68V1.95117H30.18V3.45117H31.68V4.95117H33.18V0.451172H34.68V7.95117H33.18V6.45117H31.68V4.95117H30.18V3.45117H28.68V7.95117H27.18ZM40.74 3.45117V1.95117H37.74V0.451172H40.74V1.95117H42.24V3.45117H40.74ZM37.74 7.95117V6.45117H36.24V1.95117H37.74V6.45117H40.74V7.95117H37.74ZM40.74 6.45117V4.95117H42.24V6.45117H40.74ZM43.8 7.95117V0.451172H45.3V3.45117H48.3V0.451172H49.8V7.95117H48.3V4.95117H45.3V7.95117H43.8Z"/>
</mask>
<path d="M4.5 7.95117V0.451172H6V1.95117H7.5V3.45117H9V4.95117H10.5V0.451172H12V7.95117H10.5V6.45117H9V4.95117H7.5V3.45117H6V7.95117H4.5ZM13.56 7.95117V0.451172H18.06V1.95117H19.56V6.45117H18.06V7.95117H13.56ZM15.06 3.45117H18V1.95117H15.06V3.45117ZM15.06 6.45117H18V4.95117H15.06V6.45117ZM21.12 7.95117V0.451172H25.62V1.95117H22.62V3.45117H25.62V4.95117H22.62V6.45117H25.62V7.95117H21.12ZM27.18 7.95117V0.451172H28.68V1.95117H30.18V3.45117H31.68V4.95117H33.18V0.451172H34.68V7.95117H33.18V6.45117H31.68V4.95117H30.18V3.45117H28.68V7.95117H27.18ZM40.74 3.45117V1.95117H37.74V0.451172H40.74V1.95117H42.24V3.45117H40.74ZM37.74 7.95117V6.45117H36.24V1.95117H37.74V6.45117H40.74V7.95117H37.74ZM40.74 6.45117V4.95117H42.24V6.45117H40.74ZM43.8 7.95117V0.451172H45.3V3.45117H48.3V0.451172H49.8V7.95117H48.3V4.95117H45.3V7.95117H43.8Z" fill="white"/>
<path d="M4 7.95117C4.33333 7.95117 4.66667 7.95117 5 7.95117C4.99479 7.15117 4.98958 6.35117 4.98438 5.55117C4.97331 3.85117 4.96224 2.15117 4.95117 0.451172L4.5 0.902344C5 0.899088 5.5 0.895833 6 0.892578L5.55859 0.451172C5.56185 0.951172 5.5651 1.45117 5.56836 1.95117L5.56557 2.37998L6 2.38281C6.5 2.37956 7 2.3763 7.5 2.37305L7.07813 1.95117C7.08138 2.45117 7.08464 2.95117 7.08789 3.45117L7.08523 3.86058L7.5 3.86328C8 3.86003 8.5 3.85677 9 3.85352L8.59766 3.45117C8.60091 3.95117 8.60417 4.45117 8.60742 4.95117L8.60488 5.34118L9 5.34375C9.5 5.3405 10 5.33724 10.5 5.33398L10.8803 5.33646L10.8828 4.95117C10.873 3.45117 10.8633 1.95117 10.8535 0.451172L10.5 0.804688C11 0.801432 11.5 0.798177 12 0.794922L11.6563 0.451172C11.6725 2.95117 11.6888 5.45117 11.7051 7.95117L12 7.65625C11.5 7.6595 11 7.66276 10.5 7.66602L10.7852 7.95117C10.7819 7.45117 10.7786 6.95117 10.7754 6.45117L10.7772 6.17759L10.5 6.17578C10 6.17904 9.5 6.18229 9 6.18555L9.26562 6.45117C9.26237 5.95117 9.25911 5.45117 9.25586 4.95117L9.25751 4.69699L9 4.69531C8.5 4.69857 8 4.70182 7.5 4.70508L7.74609 4.95117C7.74284 4.45117 7.73958 3.95117 7.73633 3.45117L7.73786 3.21639L7.5 3.21484C7 3.2181 6.5 3.22135 6 3.22461L5.77492 3.22314L5.77344 3.45117C5.78125 4.65117 5.78906 5.85117 5.79688 7.05117C5.79883 7.35117 5.80078 7.65117 5.80273 7.95117L6 7.75391C5.5 7.75716 5 7.76042 4.5 7.76367C4.5 7.88867 4.5 8.01367 4.5 8.13867C5 8.14193 5.5 8.14518 6 8.14844L6.19854 8.14715L6.19727 7.95117C6.19922 7.65117 6.20117 7.35117 6.20312 7.05117C6.21094 5.85117 6.21875 4.65117 6.22656 3.45117L6 3.67773C6.5 3.68099 7 3.68424 7.5 3.6875L7.26367 3.45117C7.26042 3.95117 7.25716 4.45117 7.25391 4.95117L7.25552 5.19886L7.5 5.19727C8 5.20052 8.5 5.20378 9 5.20703L8.74414 4.95117C8.74089 5.45117 8.73763 5.95117 8.73438 6.45117L8.73612 6.71852L9 6.7168C9.5 6.72005 10 6.72331 10.5 6.72656L10.2246 6.45117C10.2214 6.95117 10.2181 7.45117 10.2148 7.95117L10.2167 8.23817L10.5 8.23633C11 8.23958 11.5 8.24284 12 8.24609L12.2968 8.24416L12.2949 7.95117C12.3112 5.45117 12.3275 2.95117 12.3438 0.451172L12.3415 0.105198L12 0.107422C11.5 0.104167 11 0.100912 10.5 0.0976562L10.1442 0.0999727L10.1465 0.451172C10.1367 1.95117 10.127 3.45117 10.1172 4.95117L10.5 4.56836C10 4.5651 9.5 4.56185 9 4.55859L9.39258 4.95117C9.39583 4.45117 9.39909 3.95117 9.40234 3.45117L9.39971 3.04623L9 3.04883C8.5 3.04557 8 3.04232 7.5 3.03906L7.91211 3.45117C7.91536 2.95117 7.91862 2.45117 7.92188 1.95117L7.91911 1.52657L7.5 1.5293C7 1.52604 6.5 1.52279 6 1.51953L6.43164 1.95117C6.4349 1.45117 6.43815 0.951172 6.44141 0.451172L6.43851 0.0069108L6 0.00976562C5.5 0.00651026 5 0.00325537 4.5 0L4.04591 0.00295639L4.04883 0.451172C4.03776 2.15117 4.02669 3.85117 4.01562 5.55117C4.01042 6.35117 4.00521 7.15117 4 7.95117ZM5 7.95117H4L4.00124 8.14192L4.5 8.13867V7.76367L5 7.95117ZM13.06 7.95117C13.3933 7.95117 13.7267 7.95117 14.06 7.95117C14.0548 7.50117 14.0496 7.05117 14.0444 6.60117C14.0206 4.55117 13.9969 2.50117 13.9732 0.451172L13.56 0.864367C15.06 0.847005 16.56 0.829644 18.06 0.812283L17.6989 0.451172C17.7047 0.951172 17.7105 1.45117 17.7162 1.95117L17.7123 2.2909L18.06 2.29492C18.56 2.28913 19.06 2.28335 19.56 2.27756L19.2336 1.95117C19.251 3.45117 19.2683 4.95117 19.2857 6.45117L19.56 6.17687C19.06 6.18265 18.56 6.18844 18.06 6.19423L17.8061 6.19129L17.8031 6.45117C17.8088 6.95117 17.8146 7.45117 17.8204 7.95117L18.06 7.71159C17.01 7.72374 15.96 7.73589 14.91 7.74805C14.46 7.75325 14.01 7.75846 13.56 7.76367C13.56 7.88867 13.56 8.01367 13.56 8.13867C14.01 8.14388 14.46 8.14909 14.91 8.1543C15.96 8.16645 17.01 8.1786 18.06 8.19075L18.3023 8.18795L18.2996 7.95117C18.3054 7.45117 18.3112 6.95117 18.3169 6.45117L18.06 6.70812C18.56 6.7139 19.06 6.71969 19.56 6.72548L19.8374 6.72227L19.8343 6.45117C19.8517 4.95117 19.869 3.45117 19.8864 1.95117L19.8826 1.62105L19.56 1.62478C19.06 1.619 18.56 1.61321 18.06 1.60742L18.4037 1.95117C18.4095 1.45117 18.4153 0.951172 18.4211 0.451172L18.4169 0.0859303L18.06 0.0900607C16.56 0.0726995 15.06 0.0553384 13.56 0.0379772L13.1421 0.0428143L13.1468 0.451172C13.1231 2.50117 13.0994 4.55117 13.0756 6.60117C13.0704 7.05117 13.0652 7.50117 13.06 7.95117ZM14.06 7.95117H13.06L13.0622 8.14443L13.56 8.13867V7.76367L14.06 7.95117ZM15.06 2.95117C15.06 3.2845 15.06 3.61784 15.06 3.95117C15.208 3.95117 15.356 3.95117 15.504 3.95117C16.336 3.95117 17.168 3.95117 18 3.95117H18.5V3.45117C18.5 2.95117 18.5 2.45117 18.5 1.95117V1.45117H18C17.02 1.45117 16.04 1.45117 15.06 1.45117H14.56V1.95117C14.56 2.30317 14.56 2.65517 14.56 3.00717C14.56 3.15517 14.56 3.30317 14.56 3.45117C14.8933 3.45117 15.2267 3.45117 15.56 3.45117C15.56 3.30317 15.56 3.15517 15.56 3.00717C15.56 2.65517 15.56 2.30317 15.56 1.95117L15.06 2.45117C16.04 2.45117 17.02 2.45117 18 2.45117L17.5 1.95117C17.5 2.45117 17.5 2.95117 17.5 3.45117L18 2.95117C17.168 2.95117 16.336 2.95117 15.504 2.95117C15.356 2.95117 15.208 2.95117 15.06 2.95117ZM15.06 3.95117V2.95117L15.56 3.45117H14.56V3.95117H15.06ZM15.06 5.95117C15.06 6.2845 15.06 6.61784 15.06 6.95117C15.208 6.95117 15.356 6.95117 15.504 6.95117C16.336 6.95117 17.168 6.95117 18 6.95117H18.5V6.45117C18.5 5.95117 18.5 5.45117 18.5 4.95117V4.45117H18C17.02 4.45117 16.04 4.45117 15.06 4.45117H14.56V4.95117C14.56 5.30317 14.56 5.65517 14.56 6.00717C14.56 6.15517 14.56 6.30317 14.56 6.45117C14.8933 6.45117 15.2267 6.45117 15.56 6.45117C15.56 6.30317 15.56 6.15517 15.56 6.00717C15.56 5.65517 15.56 5.30317 15.56 4.95117L15.06 5.45117C16.04 5.45117 17.02 5.45117 18 5.45117L17.5 4.95117C17.5 5.45117 17.5 5.95117 17.5 6.45117L18 5.95117C17.168 5.95117 16.336 5.95117 15.504 5.95117C15.356 5.95117 15.208 5.95117 15.06 5.95117ZM15.06 6.95117V5.95117L15.56 6.45117H14.56V6.95117H15.06ZM20.62 7.95117C20.9533 7.95117 21.2867 7.95117 21.62 7.95117C21.6148 7.35117 21.6096 6.75117 21.6044 6.15117C21.5879 4.25117 21.5714 2.35117 21.5549 0.451172L21.12 0.886068C22.62 0.873047 24.12 0.860026 25.62 0.847005L25.2242 0.451172C25.2285 0.951172 25.2328 1.45117 25.2372 1.95117L25.62 1.56836C24.62 1.57704 23.62 1.58572 22.62 1.5944L22.2664 1.59133L22.2632 1.95117C22.2676 2.45117 22.2719 2.95117 22.2762 3.45117L22.2733 3.79191L22.62 3.79492C23.62 3.78624 24.62 3.77756 25.62 3.76888L25.3023 3.45117C25.3066 3.95117 25.311 4.45117 25.3153 4.95117L25.62 4.64648C24.62 4.65516 23.62 4.66385 22.62 4.67253L22.3438 4.67013L22.3414 4.95117C22.3457 5.45117 22.35 5.95117 22.3544 6.45117L22.3521 6.71447L22.62 6.7168C23.62 6.70812 24.62 6.69944 25.62 6.69075L25.3804 6.45117C25.3848 6.95117 25.3891 7.45117 25.3934 7.95117L25.62 7.72461C24.72 7.73242 23.82 7.74023 22.92 7.74805C22.32 7.75325 21.72 7.75846 21.12 7.76367C21.12 7.88867 21.12 8.01367 21.12 8.13867C21.72 8.14388 22.32 8.14909 22.92 8.1543C23.82 8.16211 24.72 8.16992 25.62 8.17773L25.8485 8.17575L25.8466 7.95117C25.8509 7.45117 25.8552 6.95117 25.8596 6.45117L25.8575 6.20953L25.62 6.21159C24.62 6.20291 23.62 6.19423 22.62 6.18555L22.8856 6.45117C22.89 5.95117 22.8943 5.45117 22.8986 4.95117L22.62 5.22982C23.62 5.2385 24.62 5.24718 25.62 5.25586L25.9273 5.25319L25.9247 4.95117C25.929 4.45117 25.9334 3.95117 25.9377 3.45117L25.9349 3.13073L25.62 3.13346C24.62 3.12478 23.62 3.1161 22.62 3.10742L22.9637 3.45117C22.9681 2.95117 22.9724 2.45117 22.9768 1.95117L22.62 2.30794C23.62 2.31662 24.62 2.3253 25.62 2.33398L26.0061 2.33063L26.0028 1.95117C26.0072 1.45117 26.0115 0.951172 26.0158 0.451172L26.0124 0.0519328L25.62 0.0553384C24.12 0.0423179 22.62 0.0292969 21.12 0.0162759L20.6814 0.0200834L20.6851 0.451172C20.6686 2.35117 20.6521 4.25117 20.6356 6.15117C20.6304 6.75117 20.6252 7.35117 20.62 7.95117ZM21.62 7.95117H20.62L20.6217 8.143L21.12 8.13867V7.76367L21.62 7.95117ZM26.68 7.95117C27.0133 7.95117 27.3467 7.95117 27.68 7.95117C27.6748 7.15117 27.6696 6.35117 27.6644 5.55117C27.6533 3.85117 27.6422 2.15117 27.6312 0.451172L27.18 0.902344C27.68 0.899088 28.18 0.895833 28.68 0.892578L28.2386 0.451172C28.2418 0.951172 28.2451 1.45117 28.2484 1.95117L28.2456 2.37998L28.68 2.38281C29.18 2.37956 29.68 2.3763 30.18 2.37305L29.7581 1.95117C29.7614 2.45117 29.7646 2.95117 29.7679 3.45117L29.7652 3.86058L30.18 3.86328C30.68 3.86003 31.18 3.85677 31.68 3.85352L31.2777 3.45117C31.2809 3.95117 31.2842 4.45117 31.2874 4.95117L31.2849 5.34118L31.68 5.34375C32.18 5.3405 32.68 5.33724 33.18 5.33398L33.5603 5.33646L33.5628 4.95117C33.553 3.45117 33.5433 1.95117 33.5335 0.451172L33.18 0.804688C33.68 0.801432 34.18 0.798177 34.68 0.794922L34.3363 0.451172C34.3525 2.95117 34.3688 5.45117 34.3851 7.95117L34.68 7.65625C34.18 7.6595 33.68 7.66276 33.18 7.66602L33.4652 7.95117C33.4619 7.45117 33.4586 6.95117 33.4554 6.45117L33.4572 6.17759L33.18 6.17578C32.68 6.17904 32.18 6.18229 31.68 6.18555L31.9456 6.45117C31.9424 5.95117 31.9391 5.45117 31.9359 4.95117L31.9375 4.69699L31.68 4.69531C31.18 4.69857 30.68 4.70182 30.18 4.70508L30.4261 4.95117C30.4228 4.45117 30.4196 3.95117 30.4163 3.45117L30.4179 3.21639L30.18 3.21484C29.68 3.2181 29.18 3.22135 28.68 3.22461L28.4549 3.22314L28.4534 3.45117C28.4613 4.65117 28.4691 5.85117 28.4769 7.05117C28.4788 7.35117 28.4808 7.65117 28.4827 7.95117L28.68 7.75391C28.18 7.75716 27.68 7.76042 27.18 7.76367C27.18 7.88867 27.18 8.01367 27.18 8.13867C27.68 8.14193 28.18 8.14518 28.68 8.14844L28.8785 8.14715L28.8773 7.95117C28.8792 7.65117 28.8812 7.35117 28.8831 7.05117C28.8909 5.85117 28.8988 4.65117 28.9066 3.45117L28.68 3.67773C29.18 3.68099 29.68 3.68424 30.18 3.6875L29.9437 3.45117C29.9404 3.95117 29.9372 4.45117 29.9339 4.95117L29.9355 5.19886L30.18 5.19727C30.68 5.20052 31.18 5.20378 31.68 5.20703L31.4241 4.95117C31.4209 5.45117 31.4176 5.95117 31.4144 6.45117L31.4161 6.71852L31.68 6.7168C32.18 6.72005 32.68 6.72331 33.18 6.72656L32.9046 6.45117C32.9014 6.95117 32.8981 7.45117 32.8948 7.95117L32.8967 8.23817L33.18 8.23633C33.68 8.23958 34.18 8.24284 34.68 8.24609L34.9768 8.24416L34.9749 7.95117C34.9912 5.45117 35.0075 2.95117 35.0238 0.451172L35.0215 0.105198L34.68 0.107422C34.18 0.104167 33.68 0.100912 33.18 0.0976562L32.8242 0.0999727L32.8265 0.451172C32.8167 1.95117 32.807 3.45117 32.7972 4.95117L33.18 4.56836C32.68 4.5651 32.18 4.56185 31.68 4.55859L32.0726 4.95117C32.0758 4.45117 32.0791 3.95117 32.0823 3.45117L32.0797 3.04623L31.68 3.04883C31.18 3.04557 30.68 3.04232 30.18 3.03906L30.5921 3.45117C30.5954 2.95117 30.5986 2.45117 30.6019 1.95117L30.5991 1.52657L30.18 1.5293C29.68 1.52604 29.18 1.52279 28.68 1.51953L29.1116 1.95117C29.1149 1.45117 29.1182 0.951172 29.1214 0.451172L29.1185 0.0069108L28.68 0.00976562C28.18 0.00651026 27.68 0.00325537 27.18 0L26.7259 0.00295639L26.7288 0.451172C26.7178 2.15117 26.7067 3.85117 26.6956 5.55117C26.6904 6.35117 26.6852 7.15117 26.68 7.95117ZM27.68 7.95117H26.68L26.6812 8.14192L27.18 8.13867V7.76367L27.68 7.95117ZM40.24 3.45117C40.5733 3.45117 40.9067 3.45117 41.24 3.45117C41.2348 3.20117 41.2296 2.95117 41.2244 2.70117C41.2192 2.45117 41.214 2.20117 41.2087 1.95117L41.2183 1.49239L40.74 1.48242C39.74 1.50326 38.74 1.52409 37.74 1.54492L38.1462 1.95117C38.1358 1.45117 38.1254 0.951172 38.115 0.451172L37.74 0.826172C38.74 0.805338 39.74 0.784505 40.74 0.763672L40.4275 0.451172C40.4379 0.951172 40.4483 1.45117 40.4587 1.95117L40.453 2.22644L40.74 2.23242C41.24 2.22201 41.74 2.21159 42.24 2.20117L41.99 1.95117C42.0004 2.45117 42.0108 2.95117 42.0212 3.45117L42.24 3.23242C41.99 3.23763 41.74 3.24284 41.49 3.24805C41.24 3.25325 40.99 3.25846 40.74 3.26367C40.74 3.38867 40.74 3.51367 40.74 3.63867C40.99 3.64388 41.24 3.64909 41.49 3.6543C41.74 3.6595 41.99 3.66471 42.24 3.66992L42.4632 3.66527L42.4587 3.45117C42.4692 2.95117 42.4796 2.45117 42.49 1.95117L42.4847 1.69607L42.24 1.70117C41.74 1.69076 41.24 1.68034 40.74 1.66992L41.0212 1.95117C41.0317 1.45117 41.0421 0.951172 41.0525 0.451172L41.0459 0.1323L40.74 0.138672C39.74 0.117838 38.74 0.0970054 37.74 0.0761719L37.3574 0.0841436L37.365 0.451172C37.3546 0.951172 37.3442 1.45117 37.3337 1.95117L37.3424 2.36571L37.74 2.35742C38.74 2.37826 39.74 2.39909 40.74 2.41992L40.2712 1.95117C40.266 2.20117 40.2608 2.45117 40.2556 2.70117C40.2504 2.95117 40.2452 3.20117 40.24 3.45117ZM41.24 3.45117H40.24L40.2441 3.649L40.74 3.63867V3.26367L41.24 3.45117ZM37.24 7.95117C37.5733 7.95117 37.9067 7.95117 38.24 7.95117C38.24 7.60117 38.24 7.25117 38.24 6.90117C38.24 6.75117 38.24 6.60117 38.24 6.45117V5.95117H37.74C37.24 5.95117 36.74 5.95117 36.24 5.95117L36.74 6.45117C36.74 4.95117 36.74 3.45117 36.74 1.95117L36.24 2.45117C36.74 2.45117 37.24 2.45117 37.74 2.45117L37.24 1.95117C37.24 3.45117 37.24 4.95117 37.24 6.45117V6.95117H37.74C38.74 6.95117 39.74 6.95117 40.74 6.95117L40.24 6.45117C40.24 6.95117 40.24 7.45117 40.24 7.95117L40.74 7.45117C40.09 7.45117 39.44 7.45117 38.79 7.45117C38.44 7.45117 38.09 7.45117 37.74 7.45117C37.74 7.7845 37.74 8.11784 37.74 8.45117C38.09 8.45117 38.44 8.45117 38.79 8.45117C39.44 8.45117 40.09 8.45117 40.74 8.45117H41.24V7.95117C41.24 7.45117 41.24 6.95117 41.24 6.45117V5.95117H40.74C39.74 5.95117 38.74 5.95117 37.74 5.95117L38.24 6.45117C38.24 4.95117 38.24 3.45117 38.24 1.95117V1.45117H37.74C37.24 1.45117 36.74 1.45117 36.24 1.45117H35.74V1.95117C35.74 3.45117 35.74 4.95117 35.74 6.45117V6.95117H36.24C36.74 6.95117 37.24 6.95117 37.74 6.95117L37.24 6.45117C37.24 6.60117 37.24 6.75117 37.24 6.90117C37.24 7.25117 37.24 7.60117 37.24 7.95117ZM38.24 7.95117H37.24V8.45117H37.74V7.45117L38.24 7.95117ZM40.24 6.45117C40.5733 6.45117 40.9067 6.45117 41.24 6.45117C41.24 6.35117 41.24 6.25117 41.24 6.15117C41.24 5.75117 41.24 5.35117 41.24 4.95117L40.74 5.45117C41.24 5.45117 41.74 5.45117 42.24 5.45117L41.74 4.95117C41.74 5.45117 41.74 5.95117 41.74 6.45117L42.24 5.95117C41.84 5.95117 41.44 5.95117 41.04 5.95117C40.94 5.95117 40.84 5.95117 40.74 5.95117C40.74 6.2845 40.74 6.61784 40.74 6.95117C40.84 6.95117 40.94 6.95117 41.04 6.95117C41.44 6.95117 41.84 6.95117 42.24 6.95117H42.74V6.45117C42.74 5.95117 42.74 5.45117 42.74 4.95117V4.45117H42.24C41.74 4.45117 41.24 4.45117 40.74 4.45117H40.24V4.95117C40.24 5.35117 40.24 5.75117 40.24 6.15117C40.24 6.25117 40.24 6.35117 40.24 6.45117ZM41.24 6.45117H40.24V6.95117H40.74V5.95117L41.24 6.45117ZM43.3 7.95117C43.6333 7.95117 43.9667 7.95117 44.3 7.95117C44.2948 7.30117 44.2896 6.65117 44.2844 6.00117C44.2696 4.15117 44.2547 2.30117 44.2399 0.451172L43.8 0.891076C44.3 0.887069 44.8 0.883063 45.3 0.879056L44.8721 0.451172C44.8801 1.45117 44.8881 2.45117 44.8962 3.45117L44.8929 3.85176L45.3 3.85502C46.3 3.847 47.3 3.83899 48.3 3.83098L48.6767 3.834L48.6798 3.45117C48.6718 2.45117 48.6638 1.45117 48.6558 0.451172L48.3 0.806941C48.8 0.802935 49.3 0.798928 49.8 0.794922L49.4562 0.451172C49.4763 2.95117 49.4963 5.45117 49.5163 7.95117L49.8 7.66752C49.3 7.67152 48.8 7.67553 48.3 7.67954L48.5716 7.95117C48.5636 6.95117 48.5556 5.95117 48.5476 4.95117L48.5496 4.70558L48.3 4.70358C47.3 4.71159 46.3 4.7196 45.3 4.72761L45.0782 4.72584L45.0764 4.95117C45.0833 5.80117 45.0901 6.65117 45.0969 7.50117C45.0981 7.65117 45.0993 7.80117 45.1005 7.95117L45.3 7.75165C44.8 7.75566 44.3 7.75967 43.8 7.76367C43.8 7.88867 43.8 8.01367 43.8 8.13867C44.3 8.14268 44.8 8.14668 45.3 8.15069L45.5011 8.14908L45.4995 7.95117C45.5007 7.80117 45.5019 7.65117 45.5031 7.50117C45.5099 6.65117 45.5167 5.80117 45.5236 4.95117L45.3 5.17473C46.3 5.18274 47.3 5.19075 48.3 5.19877L48.0524 4.95117C48.0444 5.95117 48.0364 6.95117 48.0284 7.95117L48.0306 8.22497L48.3 8.22281C48.8 8.22681 49.3 8.23082 49.8 8.23483L50.0859 8.23253L50.0837 7.95117C50.1037 5.45117 50.1237 2.95117 50.1437 0.451172L50.141 0.10469L49.8 0.107422C49.3 0.103415 48.8 0.0994091 48.3 0.0954027L47.9414 0.0982761L47.9442 0.451172C47.9362 1.45117 47.9282 2.45117 47.9202 3.45117L48.3 3.07136C47.3 3.06335 46.3 3.05534 45.3 3.04733L45.7038 3.45117C45.7119 2.45117 45.7199 1.45117 45.7279 0.451172L45.7244 0.0198865L45.3 0.0232873C44.8 0.0192809 44.3 0.0152745 43.8 0.0112681L43.3566 0.0148211L43.3601 0.451172C43.3453 2.30117 43.3304 4.15117 43.3156 6.00117C43.3104 6.65117 43.3052 7.30117 43.3 7.95117ZM44.3 7.95117H43.3L43.3015 8.14267L43.8 8.13867V7.76367L44.3 7.95117Z" fill="black" mask="url(#path-1-outside-1_1_2)"/>
</g>
<defs>
<filter id="filter0_d_1_2" x="0" y="0" width="54.1437" height="16.4512" filterUnits="userSpaceOnUse" color-interpolation-filters="sRGB">
<feFlood flood-opacity="0" result="BackgroundImageFix"/>
<feColorMatrix in="SourceAlpha" type="matrix" values="0 0 0 0 0 0 0 0 0 0 0 0 0 0 0 0 0 0 127 0" result="hardAlpha"/>
<feOffset dy="4"/>
<feGaussianBlur stdDeviation="2"/>
<feComposite in2="hardAlpha" operator="out"/>
<feColorMatrix type="matrix" values="0 0 0 0 0 0 0 0 0 0 0 0 0 0 0 0 0 0 0.25 0"/>
<feBlend mode="normal" in2="BackgroundImageFix" result="effect1_dropShadow_1_2"/>
<feBlend mode="normal" in="SourceGraphic" in2="effect1_dropShadow_1_2" result="shape"/>
</filter>
</defs>
</svg>
